<svg xmlns="http://www.w3.org/2000/svg" viewBox="0 0 51.02 51.02"><defs><style>.a{fill:#2f80ed;}.b{fill:#f2f2f2;}</style></defs><path class="a" d="M49.16,43.85,45.29,22.6A3.33,3.33,0,0,0,42,19.87H37.5l-2-4.41H15.57l-2,4.41H9A3.32,3.32,0,0,0,5.74,22.6L1.86,43.85a3.33,3.33,0,0,0,3.27,3.92H8a3.53,3.53,0,0,0,2.49-1l4.67-4.67a3.53,3.53,0,0,1,2.5-1H33.38a3.53,3.53,0,0,1,2.49,1l4.67,4.67a3.53,3.53,0,0,0,2.5,1h2.85A3.32,3.32,0,0,0,49.16,43.85Z"/><path class="b" d="M45.89,49.27H43a5,5,0,0,1-3.56-1.47l-4.67-4.67a2,2,0,0,0-1.43-.59H17.65a2,2,0,0,0-1.44.59L11.54,47.8A5,5,0,0,1,8,49.27H5.13A4.82,4.82,0,0,1,.39,43.58L4.26,22.33a4.83,4.83,0,0,1,4.75-4h11.5a1.5,1.5,0,0,1,.83.25L24,20.37h3.26l2.41-1.72a1.53,1.53,0,0,1,.87-.28H42a4.82,4.82,0,0,1,4.74,4l3.88,21.25a4.82,4.82,0,0,1-4.75,5.69ZM17.65,39.54H33.38A5,5,0,0,1,36.93,41h0l4.67,4.67a2,2,0,0,0,1.44.59h2.85a1.81,1.81,0,0,0,1.4-.65,1.85,1.85,0,0,0,.4-1.5L43.81,22.87A1.82,1.82,0,0,0,42,21.37H31l-2.41,1.72a1.46,1.46,0,0,1-.87.28h-4.2a1.55,1.55,0,0,1-.83-.25l-2.62-1.75H9a1.82,1.82,0,0,0-1.8,1.5L3.34,44.12a1.81,1.81,0,0,0,.39,1.5,1.84,1.84,0,0,0,1.4.65H8a2,2,0,0,0,1.43-.59L14.09,41A5,5,0,0,1,17.65,39.54Z"/><circle class="b" cx="15.51" cy="30.63" r="1.76"/><path class="b" d="M15.51,37.82a7.19,7.19,0,1,1,7.19-7.19A7.19,7.19,0,0,1,15.51,37.82Zm0-11.37a4.19,4.19,0,1,0,4.19,4.18A4.19,4.19,0,0,0,15.51,26.45Z"/><circle class="b" cx="35.52" cy="30.63" r="1.76"/><path class="b" d="M35.52,37.82a7.19,7.19,0,1,1,7.18-7.19A7.19,7.19,0,0,1,35.52,37.82Zm0-11.37a4.19,4.19,0,1,0,4.18,4.18A4.19,4.19,0,0,0,35.52,26.45Z"/><path class="b" d="M37.5,21.37a1.51,1.51,0,0,1-1.37-.87L34.5,17h-18L14.89,20.5a1.5,1.5,0,0,1-2.72-1.26l2-4.41A1.49,1.49,0,0,1,15.57,14H35.46a1.51,1.51,0,0,1,1.36.87l2,4.41a1.5,1.5,0,0,1-.73,2A1.44,1.44,0,0,1,37.5,21.37Z"/><path class="b" d="M25.51,17H19.85a1.5,1.5,0,0,1-1.47-1.19L15.8,3.56a1.5,1.5,0,1,1,2.93-.62l2.34,11h4.44a1.5,1.5,0,0,1,0,3Z"/><path class="b" d="M31.37,17H25.71a1.5,1.5,0,0,1,0-3h4.44l2.33-11a1.5,1.5,0,1,1,2.94.62L32.83,15.77A1.49,1.49,0,0,1,31.37,17Z"/></svg>