<svg xmlns="http://www.w3.org/2000/svg" viewBox="0 0 51.02 51.02"><defs><style>.a{fill:#1ab73b;}.b{fill:#f2f2f2;}</style></defs><circle class="a" cx="25.51" cy="25.34" r="23.92"/><path class="b" d="M25.51,49.6A24.27,24.27,0,0,1,8.35,8.16a1.49,1.49,0,0,1,2.12,0,1.51,1.51,0,0,1,0,2.12A21.28,21.28,0,0,0,40.56,40.37a21.28,21.28,0,0,0,0-30.09,1.5,1.5,0,0,1,2.12-2.12A24.28,24.28,0,0,1,25.51,49.6Z"/><path class="b" d="M25.51,43.71C20.31,43.71,15,41.9,15,38.45s5.27-5.27,10.47-5.27S36,35,36,38.45,30.72,43.71,25.51,43.71Zm0-7.53c-4.9,0-7.47,1.68-7.47,2.27s2.57,2.26,7.47,2.26S33,39,33,38.45,30.42,36.18,25.51,36.18Z"/><path class="b" d="M14.81,18.54A1.5,1.5,0,0,1,14,15.75L33.26,4.27A1.5,1.5,0,1,1,34.8,6.84L15.57,18.32A1.42,1.42,0,0,1,14.81,18.54Z"/><path class="b" d="M36.22,18.54a1.46,1.46,0,0,1-.77-.22L16.22,6.84a1.5,1.5,0,1,1,1.54-2.57L37,15.75a1.5,1.5,0,0,1-.77,2.79Z"/><path class="b" d="M30.85,15.27a1.41,1.41,0,0,1-.76-.21,5.34,5.34,0,0,1-3-4.49,5.37,5.37,0,0,1,3-4.5,1.5,1.5,0,0,1,1.53,2.59c-1,.57-1.53,1.27-1.53,1.91s.56,1.34,1.53,1.91a1.5,1.5,0,0,1-.77,2.79Z"/><path class="b" d="M19.9,15.35a1.5,1.5,0,0,1-.76-2.79c1-.57,1.52-1.27,1.52-1.91s-.55-1.34-1.52-1.91a1.5,1.5,0,1,1,1.53-2.58,5.33,5.33,0,0,1,3,4.49,5.35,5.35,0,0,1-3,4.5A1.5,1.5,0,0,1,19.9,15.35Z"/><path class="b" d="M25.45,10.19a12.36,12.36,0,0,1-6.17-1.53,1.5,1.5,0,1,1,1.53-2.59,10,10,0,0,0,9.28,0,1.5,1.5,0,0,1,1.53,2.59A12.36,12.36,0,0,1,25.45,10.19Z"/><path class="b" d="M30.85,15.35a1.49,1.49,0,0,1-.76-.2,10,10,0,0,0-9.28,0,1.5,1.5,0,0,1-1.53-2.59,13.15,13.15,0,0,1,12.34,0,1.5,1.5,0,0,1-.77,2.79Z"/><ellipse class="b" cx="16.99" cy="5.55" rx="5.32" ry="3.35"/><ellipse class="b" cx="34.03" cy="5.55" rx="5.32" ry="3.35"/><ellipse class="b" cx="14.81" cy="17.04" rx="6.12" ry="3.85"/><ellipse class="b" cx="36.22" cy="17.04" rx="6.12" ry="3.85"/><path class="b" d="M31.12,29.09a1.49,1.49,0,0,1-1.24-.66L25.51,22l-4.37,6.4a1.5,1.5,0,0,1-2.48-1.69l5.61-8.21a1.56,1.56,0,0,1,2.48,0l5.61,8.21a1.51,1.51,0,0,1-1.24,2.35Z"/><rect class="b" x="23.96" y="18.89" width="3.11" height="19.56" rx="1.55"/></svg>