<svg xmlns="http://www.w3.org/2000/svg" viewBox="0 0 51.02 51.02"><defs><style>.a{fill:#eb5757;}.b{fill:#f2f2f2;}</style></defs><circle class="a" cx="25.45" cy="25.34" r="23.92"/><path class="b" d="M25.52,49.6A24.27,24.27,0,0,1,8.35,8.16a1.5,1.5,0,1,1,2.12,2.12,21.28,21.28,0,1,0,30.09,0,1.51,1.51,0,0,1,0-2.12,1.49,1.49,0,0,1,2.12,0A24.28,24.28,0,0,1,25.52,49.6Z"/><path class="b" d="M14.81,18.54A1.5,1.5,0,0,1,14,15.75L33.27,4.27a1.5,1.5,0,1,1,1.54,2.57L15.58,18.32A1.46,1.46,0,0,1,14.81,18.54Z"/><path class="b" d="M36.22,18.54a1.42,1.42,0,0,1-.76-.22L16.23,6.84a1.5,1.5,0,1,1,1.54-2.57L37,15.75a1.5,1.5,0,0,1-.77,2.79Z"/><path class="b" d="M30.86,15.27a1.44,1.44,0,0,1-.77-.21,5.33,5.33,0,0,1-3-4.49,5.34,5.34,0,0,1,3-4.5,1.5,1.5,0,0,1,1.53,2.59c-1,.57-1.52,1.27-1.52,1.91s.56,1.34,1.52,1.91a1.5,1.5,0,0,1-.76,2.79Z"/><path class="b" d="M19.91,15.35a1.5,1.5,0,0,1-.77-2.79c1-.57,1.53-1.27,1.53-1.91s-.56-1.34-1.53-1.91a1.51,1.51,0,0,1-.52-2.06,1.49,1.49,0,0,1,2.05-.52,5.34,5.34,0,0,1,3,4.49,5.37,5.37,0,0,1-3,4.5A1.49,1.49,0,0,1,19.91,15.35Z"/><path class="b" d="M25.45,10.19a12.36,12.36,0,0,1-6.17-1.53,1.5,1.5,0,0,1,1.53-2.59,10,10,0,0,0,9.28,0,1.5,1.5,0,0,1,1.53,2.59A12.36,12.36,0,0,1,25.45,10.19Z"/><path class="b" d="M20.05,15.35a1.48,1.48,0,0,1-1.29-.73,1.5,1.5,0,0,1,.52-2.06,13.15,13.15,0,0,1,12.34,0,1.5,1.5,0,0,1-1.53,2.59,10,10,0,0,0-9.28,0A1.49,1.49,0,0,1,20.05,15.35Z"/><ellipse class="b" cx="17" cy="5.55" rx="5.32" ry="3.35"/><ellipse class="b" cx="34.04" cy="5.55" rx="5.32" ry="3.35"/><ellipse class="b" cx="14.81" cy="17.04" rx="6.12" ry="3.85"/><ellipse class="b" cx="36.22" cy="17.04" rx="6.12" ry="3.85"/><path class="b" d="M25.52,39.46a1.49,1.49,0,0,1-1.24-.65l-5.61-8.22a1.5,1.5,0,0,1,2.48-1.69l4.37,6.4,4.37-6.4a1.5,1.5,0,0,1,2.47,1.69l-5.6,8.22A1.5,1.5,0,0,1,25.52,39.46Z"/><rect class="b" x="23.96" y="18.89" width="3.11" height="19.56" rx="1.55" transform="translate(51.04 57.33) rotate(-180)"/><path class="b" d="M25.52,43.71C20.31,43.71,15,41.9,15,38.45c0-.88.4-2.54,3.05-3.82a1.5,1.5,0,0,1,1.3,2.7c-1.12.55-1.35,1-1.35,1.12,0,.58,2.57,2.26,7.48,2.26S33,39,33,38.45c0-.1-.23-.57-1.35-1.12A1.5,1.5,0,1,1,33,34.63c2.65,1.28,3,2.94,3,3.82C36,41.9,30.72,43.71,25.52,43.71Z"/></svg>