<svg width="80" height="80" viewBox="0 0 80 80" fill="none" xmlns="http://www.w3.org/2000/svg">
<path d="M58.5882 42.5881L40 73.4117L21.647 42.5881C19.7647 39.5293 18.8235 35.9999 18.8235 32.2352C18.8235 20.4705 28.2353 11.0587 40 11.0587C51.7647 11.0587 61.1764 20.4705 61.1764 32.2352C61.1764 35.9999 60.2353 39.5293 58.5882 42.5881Z" fill="#4F4F4F" stroke="#56CCF2" stroke-width="4" stroke-linecap="round" stroke-linejoin="round"/>
<path d="M47.0589 39.2941C43.2942 43.0588 36.9412 43.0588 32.9412 39.2941C28.9412 35.5294 29.1765 29.1765 32.9412 25.1765C36.7059 21.1765 43.0589 21.4118 47.0589 25.1765" stroke="#56CCF2" stroke-width="4" stroke-linecap="round" stroke-linejoin="round"/>
<path d="M60.2355 12C71.5296 23.2941 71.5296 41.4118 60.2355 52.4706" stroke="#56CCF2" stroke-width="4" stroke-linecap="round" stroke-linejoin="round"/>
<path d="M19.7648 52.4706C8.47066 41.1765 8.47066 23.0588 19.7648 12" stroke="#56CCF2" stroke-width="4" stroke-linecap="round" stroke-linejoin="round"/>
<path d="M14.3529 57.6471C0.235236 43.5294 0.235236 20.7059 14.3529 6.58826" stroke="#56CCF2" stroke-width="4" stroke-linecap="round" stroke-linejoin="round"/>
<path d="M65.647 6.58826C79.7646 20.7059 79.7646 43.5294 65.647 57.6471" stroke="#56CCF2" stroke-width="4" stroke-linecap="round" stroke-linejoin="round"/>
</svg>
